<svg xmlns="http://www.w3.org/2000/svg" width="48" height="48" viewBox="0 0 48 48">
  <g fill="none" fill-rule="evenodd">
    <path stroke="#5EDAB0" d="M1.08333333,32.3333333 C1.08333333,24.2791667 7.6125,17.75 15.6666667,17.75 C23.7208333,17.75 30.25,24.2791667 30.25,32.3333333 C30.25,40.3875 23.7208333,46.9166667 15.6666667,46.9166667 C7.6125,46.9166667 1.08333333,40.3875 1.08333333,32.3333333 Z"/>
    <path stroke="#5EDAB0" d="M17.75,15.6666667 C17.75,7.6125 24.2791667,1.08333333 32.3333333,1.08333333 C40.3875,1.08333333 46.9166667,7.6125 46.9166667,15.6666667 C46.9166667,23.7208333 40.3875,30.25 32.3333333,30.25"/>
    <path stroke="#005239" d="M28.1666667 18.9910417C28.3041667 20.624375 30.1145833 21.9160417 32.3291667 21.9160417 34.6333333 21.9160417 36.5 20.5160417 36.5 18.793125 36.5 16.2452083 33.0645833 15.818125 32.3375 15.668125 31.6083333 15.518125 28.1666667 15.0889583 28.1666667 12.5410417 28.1666667 10.8139583 30.0354167 9.41604167 32.3375 9.41604167 34.5520833 9.41604167 36.3625 10.7097917 36.5 12.3410417M32.625 7.33333333L32.625 8.33333333M32.625 23.0666667L32.625 24.0666667M11.5416667 35.5171131C11.5416667 37.2848753 13.437128 38.7172619 15.7757576 38.7172619 18.1143871 38.7172619 20.0098485 37.2848753 20.0098485 35.5171131 20.0098485 33.750631 18.1143871 32.3169643 15.7757576 32.3169643 13.437128 32.3169643 11.5416667 30.8845777 11.5416667 29.1168155 11.5416667 27.3503333 13.437128 25.9166667 15.7757576 25.9166667 18.1143871 25.9166667 20.0098485 27.3503333 20.0098485 29.1168155M16.021875 24L16.021875 25M16.021875 39.6666667L16.021875 40.6666667"/>
  </g>
</svg>
